<?xml version="1.0" standalone="no"?>
<!DOCTYPE svg PUBLIC "-//W3C//DTD SVG 20010904//EN"
 "http://www.w3.org/TR/2001/REC-SVG-20010904/DTD/svg10.dtd">
<svg version="1.0" xmlns="http://www.w3.org/2000/svg"
 width="366.000000pt" height="366.000000pt" viewBox="0 0 366.000000 366.000000"
 preserveAspectRatio="xMidYMid meet">
<metadata>
Created by potrace 1.11, written by Peter Selinger 2001-2013
</metadata>
<g transform="translate(0.000000,366.000000) scale(0.100000,-0.100000)"
fill="#000000" stroke="none">
<path d="M1665 3609 c-380 -36 -762 -206 -1044 -466 -290 -267 -484 -625 -552
-1018 -42 -244 -26 -548 42 -779 194 -669 743 -1161 1419 -1275 868 -146 1713
358 1991 1188 155 465 120 944 -102 1381 -214 419 -575 732 -1017 880 -241 81
-494 111 -737 89z m500 -99 c613 -130 1094 -556 1289 -1140 68 -203 80 -288
80 -540 0 -196 -3 -238 -23 -330 -150 -697 -654 -1202 -1351 -1351 -90 -20
-135 -23 -325 -23 -192 -1 -234 2 -330 22 -697 146 -1206 653 -1356 1352 -20
91 -23 135 -23 330 0 252 12 335 80 540 145 435 456 792 869 998 143 71 366
139 530 161 120 17 445 6 560 -19z"/>
<path d="M659 2546 c-119 -43 -196 -136 -223 -270 -34 -163 21 -331 131 -408
138 -94 343 -72 433 47 14 18 27 31 29 29 2 -2 4 -29 3 -59 0 -51 1 -55 22
-55 23 0 23 0 23 175 l0 175 -154 0 c-146 0 -153 -1 -153 -20 0 -19 7 -20 133
-20 l134 0 -9 -62 c-14 -101 -67 -172 -158 -209 -47 -19 -175 -17 -221 3 -59
26 -114 83 -144 149 -23 52 -27 76 -28 153 -1 184 80 304 230 337 69 16 148 1
205 -36 41 -28 98 -107 98 -137 0 -13 8 -18 25 -18 31 0 32 19 5 76 -29 59
-96 121 -155 143 -60 22 -175 26 -226 7z"/>
<path d="M1377 2541 c-134 -54 -217 -187 -217 -351 0 -234 143 -388 350 -377
91 5 110 9 165 41 114 68 173 198 163 362 -10 157 -88 277 -208 321 -74 28
-188 29 -253 4z m236 -45 c119 -49 191 -193 176 -352 -12 -123 -72 -219 -167
-266 -58 -28 -176 -30 -234 -5 -90 40 -151 124 -171 233 -36 195 54 362 218
405 40 11 137 3 178 -15z"/>
<path d="M2122 2542 c-92 -33 -163 -105 -197 -202 -9 -25 -19 -84 -22 -131
-15 -242 138 -412 356 -396 86 6 104 11 156 42 58 33 110 96 137 164 32 81 32
251 0 332 -30 76 -90 142 -159 175 -75 37 -193 44 -271 16z m244 -53 c115 -55
180 -198 162 -356 -13 -118 -76 -211 -171 -257 -42 -20 -64 -24 -122 -21 -119
4 -210 65 -257 173 -30 68 -36 202 -12 278 31 100 111 181 199 203 56 14 151
5 201 -20z"/>
<path d="M2670 2185 l0 -355 154 0 c197 0 239 12 316 90 75 75 95 132 94 265
0 116 -12 165 -57 232 -36 54 -115 107 -174 117 -21 3 -104 6 -185 6 l-148 0
0 -355z m370 287 c54 -25 69 -37 96 -77 41 -61 53 -110 50 -218 -3 -150 -42
-224 -144 -274 -51 -25 -69 -28 -189 -31 l-133 -4 0 317 0 318 138 -5 c112 -4
145 -8 182 -26z"/>
<path d="M1280 1093 c0 -281 9 -335 66 -401 19 -22 56 -49 86 -62 44 -19 65
-22 138 -18 102 5 157 30 206 95 47 61 54 114 54 388 l0 245 -23 0 -23 0 -1
-244 c-1 -149 -6 -261 -13 -287 -28 -106 -90 -153 -205 -153 -38 -1 -82 2 -97
7 -46 13 -96 64 -118 123 -18 50 -20 77 -20 304 l0 250 -25 0 -25 0 0 -247z"/>
<path d="M1923 1293 c19 -27 75 -104 125 -173 l90 -125 -36 -50 c-92 -127
-206 -282 -220 -297 -14 -17 -13 -18 16 -18 28 0 40 13 147 160 64 88 119 160
123 160 4 0 59 -72 122 -160 102 -142 118 -159 144 -160 l28 0 -17 27 c-10 14
-67 94 -128 177 -61 83 -110 155 -110 161 0 8 183 267 236 333 7 9 2 12 -19
12 -26 0 -42 -18 -139 -150 -60 -83 -113 -150 -116 -150 -7 0 -165 213 -204
273 -12 19 -26 27 -47 27 l-30 0 35 -47z"/>
</g>
</svg>
